# xmcd
#
# Track frame offsets:
#	150
#	15957
#	29225
#	43760
#	66800
#	87532
#	102408
#	114331
#	128202
#	142834
#	160303
#	175111
#	188935
#
# Disc length: 2712 seconds
#
# Revision: 1
# Processed by: cddbd v1.5.2PL0 Copyright (c) Steve Scherf et al.
# Submitted via: audiograbber 1.83.01
#
DISCID=af0a960d
DTITLE=Seamus McGee - Come Home Danny Boy
DYEAR=1900
DGENRE=
TTITLE0=Whitewashed Cottage In Old Donegal
TTITLE1=Accidentally On Purpose
TTITLE2=The Fishing Boats Of Ireland
TTITLE3=Green Glens Of Antrim - Galway Shawl
TTITLE4=Come Home Danny Boy
TTITLE5=Forty Shades Of Green
TTITLE6=How Can I Write On Paper
TTITLE7=My Donegal Shore
TTITLE8=He'll Have To Go
TTITLE9=Together Again
TTITLE10=Not Until The Next Time
TTITLE11=Diane
TTITLE12=Lonely Woman
EXTD=
EXTT0=
EXTT1=
EXTT2=
EXTT3=
EXTT4=
EXTT5=
EXTT6=
EXTT7=
EXTT8=
EXTT9=
EXTT10=
EXTT11=
EXTT12=
PLAYORDER=
